<?xml version="1.0" encoding="UTF-8"?>
<svg version="1.1" xmlns="http://www.w3.org/2000/svg" width="1024" height="1024">
<path d="M0 0 C337.92 0 675.84 0 1024 0 C1024 337.92 1024 675.84 1024 1024 C686.08 1024 348.16 1024 0 1024 C0 686.08 0 348.16 0 0 Z " fill="#F3F3F4" transform="translate(0,0)"/>
<path d="M0 0 C1.25382555 -0.02087252 1.25382555 -0.02087252 2.53298092 -0.04216671 C4.55920457 -0.07801032 6.58514085 -0.12932963 8.61097717 -0.18275452 C13.79359792 0.26462415 18.36665293 1.6593242 22.35696411 5.0541687 C22.90481567 5.7347937 23.45266724 6.4154187 24.01712036 7.1166687 C24.5830188 7.7972937 25.14891724 8.4779187 25.73196411 9.1791687 C28.25887685 12.81206353 28.20171985 15.94482697 28.19314575 20.240448 C28.19307022 21.50152878 28.19299469 22.76260956 28.19291687 24.06190491 C28.18781025 25.43823282 28.18259425 26.81456034 28.17727661 28.19088745 C28.17541122 29.59907481 28.17398789 31.00726281 28.17298889 32.41545105 C28.16917324 36.119342 28.15935108 39.82319365 28.14828491 43.52706909 C28.13805033 47.30758126 28.13348688 51.08809979 28.12844849 54.86862183 C28.11772796 62.28465535 28.10066296 69.70065652 28.07962036 77.1166687 C29.02724243 77.42209595 29.9748645 77.72752319 30.95120239 78.04220581 C39.73337926 81.05846618 47.27056034 88.98526698 51.65774536 96.9994812 C56.5716486 107.58978992 57.94970789 118.00187946 54.51712036 129.4291687 C51.10126026 138.41827422 45.73808248 144.91036117 37.07962036 149.1166687 C27.64687603 153.33078996 17.41411919 152.54673959 7.31643677 152.52072144 C5.31474935 152.52643025 3.31306519 152.53339649 1.31138611 152.54151917 C-4.10399124 152.55940969 -9.51920618 152.55828982 -14.93460417 152.55257678 C-19.46474001 152.5494788 -23.99484494 152.5555842 -28.52497637 152.56161553 C-39.21702515 152.57564585 -49.90899401 152.57411205 -60.6010437 152.56271362 C-71.61080315 152.55123546 -82.62031891 152.56530654 -93.63004625 152.5921101 C-103.10213663 152.61430205 -112.57415072 152.62089654 -122.04626524 152.61503369 C-127.69493868 152.6116711 -133.34345596 152.61403272 -138.99210739 152.63128471 C-144.30610455 152.64680734 -149.61974213 152.64273933 -154.93372536 152.62397957 C-156.8766619 152.62030831 -158.8196254 152.62335914 -160.762537 152.63386536 C-173.92514591 152.6995719 -186.18865684 152.3102044 -196.75241089 143.36276245 C-204.98604207 134.83242384 -210.92400283 125.27242053 -211.23287964 113.2416687 C-210.77142973 98.65985159 -206.56882374 87.0471758 -196.34225464 76.3744812 C-191.13124247 71.51647308 -186.05014834 67.73723369 -179.24850464 65.52462769 C-178.43800659 65.25947861 -177.62750854 64.99432953 -176.79244995 64.72114563 C-176.17466675 64.52166824 -175.55688354 64.32219086 -174.92037964 64.1166687 C-174.92926208 63.53308594 -174.93814453 62.94950317 -174.94729614 62.34823608 C-175.03611488 56.24836061 -175.09625657 50.14867026 -175.1401062 44.04830933 C-175.16016281 41.77479586 -175.18741502 39.5013336 -175.22213745 37.22799683 C-175.27091676 33.95117521 -175.29340861 30.67503845 -175.31100464 27.3979187 C-175.33164978 26.38926758 -175.35229492 25.38061646 -175.37356567 24.34140015 C-175.37586397 17.03556553 -174.00085311 11.60787197 -169.10397339 6.05807495 C-168.23965698 5.37551636 -168.23965698 5.37551636 -167.35787964 4.6791687 C-166.77909058 4.20608276 -166.20030151 3.73299683 -165.60397339 3.24557495 C-162.09563349 0.89311502 -158.89075338 0.98210498 -154.79634094 0.95845032 C-152.87288345 0.94376709 -152.87288345 0.94376709 -150.91056824 0.92878723 C-149.48602332 0.92288241 -148.06147802 0.91707201 -146.63693237 0.91134644 C-145.13861827 0.9017664 -143.64030687 0.89175624 -142.14199829 0.88134766 C-138.06466844 0.85426303 -133.98732703 0.83326158 -129.90995669 0.81334567 C-125.63021191 0.7914391 -121.35050215 0.76405788 -117.07078552 0.73728943 C-109.86710153 0.69298812 -102.66340489 0.65222618 -95.45968628 0.61398315 C-85.35844519 0.56035565 -75.25724709 0.50066369 -65.15604866 0.43958747 C-53.94236836 0.37204252 -42.72867425 0.306727 -31.51496887 0.2434845 C-30.72179534 0.23895285 -29.9286218 0.23442121 -29.1114127 0.22975224 C-25.31003719 0.20845189 -21.50867866 0.1894862 -17.70726681 0.17601681 C-11.80375843 0.15435327 -5.90233473 0.12865744 0 0 Z " fill="#007CC9" transform="translate(307.9203796386719,529.8833312988281)"/>
<path d="M0 0 C1.05449781 -0.014704 2.10899563 -0.029408 3.19544792 -0.04455757 C4.10089128 -0.06272498 5.00633463 -0.08089239 5.93921566 -0.09961033 C11.90971299 0.27233136 17.52589813 2.48216056 21.52941704 6.99925041 C25.57004749 13.18646579 25.84850348 18.09848152 25.86535454 25.33128166 C25.87533974 26.82373657 25.87533974 26.82373657 25.88552666 28.34634209 C25.89563601 30.44848092 25.90034421 32.55065174 25.90002251 34.65281487 C25.90438781 37.85282213 25.94070465 41.05144079 25.97863579 44.25120354 C25.98450603 46.29872489 25.98847403 48.34625276 25.99035454 50.39378166 C26.00472557 51.34299995 26.0190966 52.29221825 26.03390312 53.27020073 C25.98422937 60.56968125 24.46547702 66.12569043 19.21691704 71.37425041 C13.43566043 75.00434177 9.01221875 76.43623117 2.17371941 76.44943047 C1.4669284 76.454816 0.76013739 76.46020154 0.03192848 76.46575028 C-2.31861769 76.47997182 -4.66859607 76.47294084 -7.01916695 76.46580315 C-8.71163572 76.47150976 -10.40410064 76.47847515 -12.09655952 76.48660088 C-16.68130238 76.50451503 -21.26585366 76.50336721 -25.85062099 76.49765849 C-29.68260828 76.49456418 -33.51455891 76.50066178 -37.34654099 76.50669724 C-46.38865187 76.52073508 -55.43066826 76.51918729 -64.47278023 76.50779533 C-73.79152647 76.49631408 -83.10998491 76.51039159 -92.42869323 76.53719181 C-100.43910477 76.55936425 -108.44942607 76.56598273 -116.45986611 76.5601154 C-121.23991576 76.55674841 -126.01978093 76.55914379 -130.79980469 76.57636642 C-135.29545906 76.59185816 -139.79068776 76.5878554 -144.28632545 76.56906128 C-145.93261637 76.56538159 -147.57893899 76.56846577 -149.22520065 76.57894707 C-166.57482097 76.68094242 -166.57482097 76.68094242 -173.53878975 70.11038017 C-177.69329947 63.89745441 -178.32934213 58.83721427 -178.19714546 51.45628166 C-178.19814247 50.37344398 -178.19913948 49.29060631 -178.2001667 48.17495537 C-178.19551036 45.89992188 -178.17620207 43.62487566 -178.14294624 41.35008049 C-178.09557241 37.87347594 -178.10186347 34.39992607 -178.11511421 30.92307854 C-178.10396463 28.70496136 -178.08974735 26.48685702 -178.07214546 24.26878166 C-178.07396828 23.2342939 -178.07579109 22.19980614 -178.07766914 21.13397026 C-177.93912482 14.0735161 -176.83948614 10.52949672 -171.87292671 5.41721916 C-167.10159265 1.61287547 -164.08831764 0.93670748 -158.07838631 0.90353203 C-157.10106368 0.89612506 -157.10106368 0.89612506 -156.10399717 0.88856846 C-153.91638056 0.87318712 -151.72879333 0.86483064 -149.5411396 0.85642815 C-147.97397796 0.84684901 -146.4068189 0.8368389 -144.83966255 0.82642937 C-140.5767903 0.79935063 -136.31390697 0.77835002 -132.05099607 0.75842738 C-127.58426558 0.73654214 -123.11756886 0.70915601 -118.65086555 0.68237114 C-110.1760726 0.63240207 -101.70126048 0.58749736 -93.22643036 0.54434878 C-83.629046 0.49521642 -74.03169873 0.44012547 -64.43434918 0.38466918 C-50.25746109 0.30298219 -36.08056008 0.22343302 -21.9036274 0.14985847 C-20.3751228 0.14189897 -18.84661871 0.13383962 -17.31811523 0.12566757 C-16.24369517 0.11994327 -16.24369517 0.11994327 -15.14756966 0.11410332 C-14.10600694 0.10851125 -14.10600694 0.10851125 -13.04340255 0.10280621 C-11.06887838 0.09328997 -9.09433862 0.08719769 -7.11980057 0.08121872 C-4.74641308 0.06855687 -2.37304567 0.04222246 0 0 Z " fill="#017BC9" transform="translate(310.47058296203613,446.9382495880127)"/>
<path d="M0 0 C1.71232341 -0.0051432 3.42464151 -0.01242751 5.13694763 -0.02168274 C9.77136129 -0.04015396 14.4051976 -0.02728531 19.03958702 -0.00759244 C23.89785778 0.0088308 28.75609302 -0.00002395 33.61437988 -0.00511169 C41.77182198 -0.00962854 49.92903447 0.00621186 58.08642578 0.03417969 C67.50689119 0.06622971 76.92694258 0.06621449 86.34743738 0.04896492 C95.42332284 0.03308097 104.49905704 0.03984542 113.57493591 0.05690193 C117.4312291 0.06376034 121.2874006 0.06275242 125.14369202 0.05535698 C129.68782096 0.04767514 134.23148081 0.05988205 138.77552986 0.08720589 C140.43954641 0.09407092 142.10360693 0.09420793 143.76762199 0.08699036 C160.67458451 0.02212744 160.67458451 0.02212744 168.2212677 6.36962891 C172.63777524 12.09700667 173.02158126 16.9723665 172.91601562 24.06860352 C172.92106865 25.68786743 172.92106865 25.68786743 172.92622375 27.33984375 C172.92592598 29.61243475 172.91077893 31.88506712 172.8815918 34.1574707 C172.84190928 37.62129197 172.86090922 41.08128123 172.88671875 44.54516602 C172.87915892 46.76132659 172.86820475 48.97747873 172.85351562 51.19360352 C172.86049973 52.22090576 172.86748383 53.24820801 172.87467957 54.30664062 C172.74654515 60.88332402 171.61643138 65.63722599 167.15429688 70.63110352 C161.47296013 75.00861625 156.21975666 75.75433746 149.23529053 75.77827454 C148.5392299 75.78195122 147.84316927 75.78562791 147.1260159 75.78941602 C144.79396403 75.80042775 142.46195676 75.8042924 140.12988281 75.80810547 C138.45756388 75.81437198 136.78524633 75.82101895 135.1129303 75.82801819 C129.62152065 75.84903737 124.13011078 75.85941807 118.63867188 75.86938477 C116.74683874 75.87343302 114.85500575 75.87754996 112.96317291 75.88173485 C104.07527458 75.90078122 95.18738452 75.91501384 86.29946971 75.92334682 C76.04552052 75.93311978 65.79178717 75.95944316 55.53791404 75.99984771 C47.60826045 76.03002001 39.6786687 76.04481672 31.74895883 76.04812783 C27.01466812 76.05047689 22.28060814 76.05941875 17.54637909 76.084589 C13.09101758 76.10789448 8.63603834 76.11209305 4.18063164 76.10182762 C2.54884252 76.10133276 0.91703442 76.10763843 -0.71469688 76.12138367 C-17.60454344 76.25565618 -17.60454344 76.25565618 -24.90429688 69.81469727 C-25.35933594 69.23848633 -25.814375 68.66227539 -26.28320312 68.06860352 C-26.75628906 67.48981445 -27.229375 66.91102539 -27.71679688 66.31469727 C-29.75600783 63.27352106 -29.98300046 60.56301156 -30.03857422 57.01123047 C-30.05463715 56.0762825 -30.07070007 55.14133453 -30.08724976 54.17805481 C-30.13188025 49.89752033 -30.17277783 45.61713884 -30.19580078 41.33642578 C-30.21233741 39.08339085 -30.23959685 36.83040789 -30.27783203 34.57763672 C-30.3327997 31.32044396 -30.35450735 28.06447988 -30.36914062 24.80688477 C-30.39181 23.80764481 -30.41447937 22.80840485 -30.43783569 21.77888489 C-30.41768493 15.05703987 -29.28820827 10.73090843 -24.84570312 5.63110352 C-17.99184532 -1.11362417 -8.91602381 -0.06800925 0 0 Z " fill="#017BC9" transform="translate(162.845703125,364.368896484375)"/>
<path d="M0 0 C6.51928907 4.53035342 11.66043886 10.40474552 13.54582214 18.27986145 C14.02366728 21.14174685 14.14813057 23.83229648 14.17700195 26.7331543 C14.19625481 28.42597786 14.19625481 28.42597786 14.21589661 30.15299988 C14.22328354 31.36450211 14.23067047 32.57600433 14.23828125 33.82421875 C14.246353 35.08079788 14.25442474 36.33737701 14.26274109 37.6320343 C14.27656193 40.29077825 14.28758364 42.94939911 14.29516602 45.6081543 C14.30619894 48.98939003 14.34057846 52.369962 14.38033772 55.75096416 C14.41300662 59.00448195 14.41729963 62.258062 14.42578125 65.51171875 C14.44328934 66.71309982 14.46079742 67.9144809 14.47883606 69.15226746 C14.45212894 79.59852217 12.09448362 87.63153028 4.8671875 95.30859375 C-2.18100774 101.69325596 -9.25378623 102.36880791 -18.45703125 102.2734375 C-26.89116875 101.62251178 -33.43157407 97.23613311 -39 91 C-42.73520526 85.22446586 -44.11265791 79.93666653 -44.17700195 73.08911133 C-44.18983719 71.89719681 -44.20267242 70.70528229 -44.21589661 69.47724915 C-44.22697701 67.54911629 -44.22697701 67.54911629 -44.23828125 65.58203125 C-44.24235678 64.92394659 -44.2464323 64.26586193 -44.25063133 63.58783531 C-44.27145718 60.10209853 -44.28577189 56.61640067 -44.29516602 53.13061523 C-44.30620217 49.55085146 -44.34057857 45.97171411 -44.38033772 42.39217091 C-44.40663033 39.62185096 -44.4148691 36.85167722 -44.41844749 34.08124352 C-44.42561788 32.12656635 -44.45200344 30.17198966 -44.47883606 28.21748352 C-44.45366566 17.82713304 -42.17564267 10.33232033 -34.953125 2.73046875 C-26.39997773 -4.84761973 -9.82400927 -6.23148218 0 0 Z " fill="#0F1415" transform="translate(482,448)"/>
<path d="M0 0 C39.86486486 0 39.86486486 0 48 7 C54.9278599 15.49097035 55.83857168 25.36478136 55 36 C53.68590141 44.91157613 50.96889209 51.87647707 43.93359375 57.71484375 C42 59 42 59 40 59 C40.72703125 60.79401245 40.72703125 60.79401245 41.46875 62.62426758 C43.26304229 67.05576 45.05052092 71.48997384 46.8359375 75.92504883 C47.61011692 77.84539699 48.38615035 79.76499879 49.1640625 81.68383789 C50.28091105 84.4396332 51.39109793 87.19803044 52.5 89.95703125 C52.84998047 90.81649857 53.19996094 91.67596588 53.56054688 92.56147766 C53.88087891 93.36208115 54.20121094 94.16268463 54.53125 94.98754883 C54.81548828 95.6914827 55.09972656 96.39541656 55.39257812 97.12068176 C56 99 56 99 56 102 C49.73 102 43.46 102 37 102 C33.40605706 92.87138493 29.8445499 83.74567691 26.5625 74.5 C26.30388184 73.7769165 26.04526367 73.05383301 25.77880859 72.30883789 C24 67.24612186 24 67.24612186 24 65 C22.02 65 20.04 65 18 65 C18 77.21 18 89.42 18 102 C12.06 102 6.12 102 0 102 C0 68.34 0 34.68 0 0 Z " fill="#0E1315" transform="translate(744,446)"/>
<path d="M0 0 C5.94 0 11.88 0 18 0 C18 14.19 18 28.38 18 43 C24.93 43 31.86 43 39 43 C39 28.81 39 14.62 39 0 C44.94 0 50.88 0 57 0 C57 33.66 57 67.32 57 102 C51.06 102 45.12 102 39 102 C39 87.81 39 73.62 39 59 C32.07 59 25.14 59 18 59 C18 73.19 18 87.38 18 102 C12.06 102 6.12 102 0 102 C0 68.34 0 34.68 0 0 Z " fill="#0D1214" transform="translate(369,446)"/>
<path d="M0 0 C4.3697943 3.30196098 8.21830767 7.04942827 12 11 C12.61230469 11.62777344 13.22460938 12.25554688 13.85546875 12.90234375 C18.36651375 17.83086335 23.09564932 24.16753829 24.640625 30.71484375 C25.08921875 31.46894531 25.5378125 32.22304688 26 33 C28.93985027 33.72585146 31.51554941 34.14552984 34.5 34.4375 C43.13841858 35.59714536 50.09654361 37.29170724 55.89453125 44.28515625 C59.34466646 49.25432055 61.1419559 53.06939553 61.0625 59.1875 C61.05347656 60.08855469 61.04445313 60.98960937 61.03515625 61.91796875 C61.01775391 62.94857422 61.01775391 62.94857422 61 64 C60.443125 63.62488281 59.88625 63.24976563 59.3125 62.86328125 C56.88114177 61.23279271 54.44103905 59.61595265 52 58 C50.94425781 57.28650391 50.94425781 57.28650391 49.8671875 56.55859375 C49.20976562 56.12675781 48.55234375 55.69492187 47.875 55.25 C47.29492188 54.86328125 46.71484375 54.4765625 46.1171875 54.078125 C39.21147209 50.56156143 32.16621241 50.59160427 24.5625 50.375 C22.8928418 50.31699219 22.8928418 50.31699219 21.18945312 50.2578125 C18.45979524 50.16409034 15.73013437 50.07837706 13 50 C12.84200928 49.21238281 12.68401855 48.42476562 12.52124023 47.61328125 C9.65680897 33.86976162 3.09875646 22.39062264 -8.48046875 14.2578125 C-22.97975451 5.22104835 -36.96544809 2.82539134 -53.88671875 5.6484375 C-70.92859922 10.45881148 -80.48075043 21.28493256 -89 36 C-89.54527344 35.855625 -90.09054688 35.71125 -90.65234375 35.5625 C-99.79840144 33.31116272 -108.27385396 32.93145153 -117 37 C-124.01797764 41.65261793 -127.85377254 47.28462813 -131 55 C-135.7734375 54.2421875 -135.7734375 54.2421875 -137.8125 52.0625 C-139.76822993 47.01877544 -139.91029837 42.02349103 -138.34375 36.8203125 C-134.24415733 27.73759425 -127.01144975 22.67345722 -118 19 C-110.50022423 16.33058828 -102.85656574 16.81586174 -95 17 C-94.65388672 15.92685547 -94.65388672 15.92685547 -94.30078125 14.83203125 C-88.95584242 3.19515242 -74.59416156 -5.06792032 -63.1875 -9.375 C-41.06086213 -16.90298173 -19.34193846 -12.86104589 0 0 Z " fill="#F2F3F4" transform="translate(277,576)"/>
<path d="M0 0 C0.74805908 0.00829834 1.49611816 0.01659668 2.2668457 0.02514648 C9.03731697 0.23205268 14.23771226 1.4032112 19.38671875 6.015625 C26.81149185 13.99770552 26.95243145 20.85054966 26.625 31.4375 C21.015 31.4375 15.405 31.4375 9.625 31.4375 C9.20182292 28.67057292 8.77864583 25.90364583 8.35546875 23.13671875 C7.5758202 20.25577145 7.04925867 19.13674673 4.625 17.4375 C-1.04064063 16.71904321 -1.04064063 16.71904321 -5.8125 19.3125 C-8.62720069 23.14049294 -8.6039926 25.45268611 -7.984375 30.0703125 C-6.02034207 37.69982503 1.313012 41.40467729 7.51953125 45.3984375 C16.71839648 51.43844712 24.64452659 57.41878012 27.625 68.4375 C28.78359916 78.2225479 28.9230974 88.37402681 22.625 96.4375 C17.66049719 102.06473984 12.03756309 105.03018648 4.578125 105.71875 C-4.5675646 105.97637506 -12.51006296 105.12078174 -19.75 99.1875 C-24.9656328 94.2036731 -28.23564148 88.74089095 -28.47265625 81.421875 C-28.44010417 78.42708333 -28.40755208 75.43229167 -28.375 72.4375 C-22.435 72.4375 -16.495 72.4375 -10.375 72.4375 C-10.313125 73.984375 -10.25125 75.53125 -10.1875 77.125 C-9.80365163 81.11024925 -9.52578838 82.24804793 -6.9375 85.5 C-3.13559288 88.3746127 -1.13912741 88.72334764 3.625 88.4375 C6.45273866 87.57346874 7.34758927 86.87343114 8.9375 84.375 C10.19009705 79.02299443 9.51450893 74.33254076 7.1875 69.375 C2.14336125 63.5926946 -4.0509882 59.28867619 -10.41674805 55.07543945 C-18.407727 49.7523077 -24.19168061 44.39161786 -26.8984375 34.91796875 C-28.46086025 26.78568642 -28.06873396 19.95423246 -23.92578125 12.6953125 C-17.79187711 3.7648425 -10.78286006 -0.15398889 0 0 Z " fill="#0E1314" transform="translate(533.375,444.5625)"/>
<path d="M0 0 C5.87504913 3.56554706 8.73617797 8.89723576 11.625 14.9375 C12.57271131 19.67605653 12.36774534 24.23494101 12.25 29.0625 C6.31 29.0625 0.37 29.0625 -5.75 29.0625 C-5.9453125 26.84895833 -6.140625 24.63541667 -6.3359375 22.421875 C-6.7712105 19.94164019 -7.43369691 18.20267625 -8.75 16.0625 C-11.89341993 14.49079004 -15.30771451 14.83074217 -18.75 15.0625 C-19.74 15.3925 -20.73 15.7225 -21.75 16.0625 C-22.75023738 18.76314093 -22.99264561 21.50901842 -23.125 24.375 C-23.17398438 25.09300781 -23.22296875 25.81101562 -23.2734375 26.55078125 C-21.95449404 32.87974131 -17.26993722 36.77957067 -12.07739258 40.18212891 C-11.39185303 40.61702637 -10.70631348 41.05192383 -10 41.5 C-0.16763895 48.02810707 9.012061 54.18156356 12.85546875 65.91015625 C14.45714228 74.64799895 14.19355382 83.52394286 9.25 91.0625 C4.35040369 97.80092785 -0.38366115 101.66207387 -8.75 103.0625 C-18.02995805 103.80441015 -26.26562306 103.34425364 -33.81640625 97.44921875 C-39.25428115 92.32921545 -42.60308123 86.59935167 -42.84765625 79.046875 C-42.81510417 76.05208333 -42.78255208 73.05729167 -42.75 70.0625 C-37.14 70.0625 -31.53 70.0625 -25.75 70.0625 C-25.26171875 72.82942708 -24.7734375 75.59635417 -24.28515625 78.36328125 C-23.79253153 81.14439213 -23.79253153 81.14439213 -22.75 84.0625 C-18.12371861 86.26549114 -14.6975762 86.18270593 -9.75 85.0625 C-6.50150023 83.34023504 -6.50150023 83.34023504 -5.75 80.0625 C-5.2991359 73.18682254 -6.18326718 69.11049522 -10.75 63.6875 C-15.93987094 59.14636293 -21.6470021 55.27961862 -27.25390625 51.2734375 C-34.28676532 46.06126784 -39.42263366 40.66956199 -41.75 32.0625 C-42.72581351 22.81795099 -42.48113175 14.66727098 -36.75 7.0625 C-27.46149287 -2.97508029 -12.72323516 -5.63318809 0 0 Z " fill="#0E1314" transform="translate(877.75,446.9375)"/>
<path d="M0 0 C15.51 0 31.02 0 47 0 C47 5.61 47 11.22 47 17 C37.76 17 28.52 17 19 17 C19 25.58 19 34.16 19 43 C26.92 43 34.84 43 43 43 C43 48.28 43 53.56 43 59 C35.08 59 27.16 59 19 59 C19 67.91 19 76.82 19 86 C28.24 86 37.48 86 47 86 C47 91.28 47 96.56 47 102 C31.49 102 15.98 102 0 102 C0 68.34 0 34.68 0 0 Z " fill="#0F1315" transform="translate(900,446)"/>
<path d="M0 0 C15.51 0 31.02 0 47 0 C47 5.61 47 11.22 47 17 C37.76 17 28.52 17 19 17 C19 25.58 19 34.16 19 43 C26.92 43 34.84 43 43 43 C43 48.28 43 53.56 43 59 C35.08 59 27.16 59 19 59 C19 67.91 19 76.82 19 86 C28.24 86 37.48 86 47 86 C47 91.28 47 96.56 47 102 C31.49 102 15.98 102 0 102 C0 68.34 0 34.68 0 0 Z " fill="#0E1315" transform="translate(686,446)"/>
<path d="M0 0 C18.48 0 36.96 0 56 0 C56 5.61 56 11.22 56 17 C49.73 17 43.46 17 37 17 C37 45.05 37 73.1 37 102 C30.73 102 24.46 102 18 102 C18 73.95 18 45.9 18 17 C12.06 17 6.12 17 0 17 C0 11.39 0 5.78 0 0 Z " fill="#0E1315" transform="translate(567,446)"/>
<path d="M0 0 C5.94 0 11.88 0 18 0 C18 28.05 18 56.1 18 85 C27.24 85 36.48 85 46 85 C46 90.28 46 95.56 46 101 C30.82 101 15.64 101 0 101 C0 67.67 0 34.34 0 0 Z " fill="#0E1315" transform="translate(631,447)"/>
<path d="M0 0 C4.00744737 2.11714201 6.37144839 3.76894588 8 8 C8.26742554 10.60458374 8.26742554 10.60458374 8.29052734 13.59130859 C8.3096669 15.27358047 8.3096669 15.27358047 8.32919312 16.98983765 C8.33141876 18.1971756 8.33364441 19.40451355 8.3359375 20.6484375 C8.3425943 21.89372223 8.3492511 23.13900696 8.35610962 24.42202759 C8.36623618 27.05656223 8.37179182 29.69068419 8.37060547 32.32519531 C8.37044274 35.02175668 8.38435399 37.71764012 8.41162109 40.4140625 C8.44826424 44.30489873 8.45807839 48.19494594 8.4609375 52.0859375 C8.47530853 53.28922699 8.48967957 54.49251648 8.50448608 55.73226929 C8.46978219 62.09307923 8.38630433 66.21372871 4 71 C0.79214982 73.35242347 -2.09649252 73.4684209 -6 73 C-9.97405005 70.8601269 -12.38180696 69.22354744 -14 65 C-14.26742554 62.39541626 -14.26742554 62.39541626 -14.29052734 59.40869141 C-14.3096669 57.72641953 -14.3096669 57.72641953 -14.32919312 56.01016235 C-14.33141876 54.8028244 -14.33364441 53.59548645 -14.3359375 52.3515625 C-14.3425943 51.10627777 -14.3492511 49.86099304 -14.35610962 48.57797241 C-14.36623618 45.94343777 -14.37179182 43.30931581 -14.37060547 40.67480469 C-14.37044274 37.97824332 -14.38435399 35.28235988 -14.41162109 32.5859375 C-14.44826424 28.69510127 -14.45807839 24.80505406 -14.4609375 20.9140625 C-14.47530853 19.71077301 -14.48967957 18.50748352 -14.50448608 17.26773071 C-14.46982175 10.91417276 -14.42487698 6.75116286 -10 2 C-6.24543433 -0.50304378 -4.45254066 -0.45280074 0 0 Z " fill="#F3F4F4" transform="translate(470,461)"/>
<path d="M0 0 C0.96457626 -0.01268417 1.92915253 -0.02536835 2.92295837 -0.03843689 C4.47618553 -0.03403343 4.47618553 -0.03403343 6.06079102 -0.02954102 C7.13087906 -0.03478287 8.2009671 -0.04002472 9.30348206 -0.04542542 C11.56543104 -0.05184581 13.82741341 -0.05050841 16.08935547 -0.04199219 C19.54853862 -0.033487 23.00606808 -0.06223743 26.46508789 -0.09399414 C28.6636551 -0.09560637 30.86222524 -0.09502821 33.06079102 -0.09204102 C34.09425156 -0.10327499 35.1277121 -0.11450897 36.19248962 -0.12608337 C40.62117615 -0.08315264 43.36599634 -0.03885487 47.24853516 2.22021484 C49.90929254 5.31319402 50.26943027 7.3504121 50.12719727 11.40405273 C47.54767943 14.79918954 46.08955331 16.25144243 41.82641602 16.92749023 C40.48844788 16.90514813 39.15079212 16.85327158 37.81469727 16.77905273 C36.69865112 16.7436438 36.69865112 16.7436438 35.56005859 16.70751953 C33.80868155 16.6508024 32.05761318 16.58409335 30.30688477 16.51000977 C27.25288905 16.40824117 24.20242655 16.37017229 21.14689636 16.35223389 C18.26095309 16.33260483 15.37554379 16.29055409 12.48989868 16.24542236 C11.04513351 16.2262472 9.60025104 16.21443233 8.15536499 16.21014404 C6.09666196 16.20072531 4.04077655 16.15943661 1.98266602 16.11108398 C0.78279053 16.09537354 -0.41708496 16.07966309 -1.65332031 16.06347656 C-5.78631232 15.21694502 -7.31834882 13.70552141 -9.87280273 10.40405273 C-9.93530273 6.77905273 -9.93530273 6.77905273 -8.87280273 3.40405273 C-5.98057116 0.63686355 -3.95425532 0.02523848 0 0 Z " fill="#F1F3F4" transform="translate(168.872802734375,394.595947265625)"/>
<path d="M0 0 C1.57327309 -0.00574036 1.57327309 -0.00574036 3.17832947 -0.01159668 C5.39143842 -0.01431416 7.60457957 -0.00696454 9.81762695 0.00976562 C13.20661867 0.03119798 16.59349552 0.00994624 19.98242188 -0.015625 C22.13411926 -0.01298212 24.28581534 -0.00785796 26.4375 0 C27.45111099 -0.00809692 28.46472198 -0.01619385 29.50904846 -0.02453613 C36.51417039 0.06897354 36.51417039 0.06897354 39.78662109 2.43945312 C41.250366 4.68138491 41.7200365 5.87256295 41.71484375 8.53125 C41.73675781 9.19125 41.75867188 9.85125 41.78125 10.53125 C40.74499707 13.82666305 39.08634259 14.73635195 36.15234375 16.53125 C32.62304237 17.13783474 29.13303145 17.11562622 25.55859375 17.09765625 C24.02217224 17.10695412 24.02217224 17.10695412 22.45471191 17.11643982 C20.29289702 17.12353182 18.13102745 17.12037485 15.96923828 17.10766602 C12.66336556 17.09379624 9.36032145 17.12788694 6.0546875 17.16601562 C3.95182222 17.16696681 1.84895341 17.16510802 -0.25390625 17.16015625 C-1.24048218 17.17341446 -2.22705811 17.18667267 -3.24353027 17.20033264 C-7.90028169 17.13719997 -10.14179647 17.05485096 -13.97070312 14.21459961 C-15.84765625 11.53125 -15.84765625 11.53125 -16.47265625 7.96875 C-15.84765625 4.53125 -15.84765625 4.53125 -13.98657227 2.34960938 C-9.37769419 -0.32029215 -5.23900637 -0.04193396 0 0 Z " fill="#F3F4F4" transform="translate(175.84765625,477.46875)"/>
<path d="M0 0 C0.73997726 -0.00570007 1.47995453 -0.01140015 2.24235535 -0.01727295 C3.81007456 -0.02672518 5.37781366 -0.03325782 6.94555664 -0.03710938 C9.33580582 -0.04679532 11.7251878 -0.07780695 14.11523438 -0.109375 C15.63931782 -0.11590723 17.1634074 -0.12115684 18.6875 -0.125 C19.39912796 -0.1373468 20.11075592 -0.1496936 20.84394836 -0.16241455 C25.25232377 -0.1427818 28.03921857 0.48931873 31.54296875 3.203125 C33.08883751 6.29486252 32.83656396 8.79742052 32.54296875 12.203125 C31.05859375 14.39648438 31.05859375 14.39648438 28.54296875 16.203125 C25.56227362 16.60085119 22.95892572 16.76459559 19.98046875 16.734375 C18.73801392 16.74011536 18.73801392 16.74011536 17.47045898 16.74597168 C15.72215558 16.74868925 13.97381141 16.74133881 12.22558594 16.72460938 C9.55181098 16.70319582 6.88072279 16.72441444 4.20703125 16.75 C2.5065045 16.74735669 0.80597941 16.74223165 -0.89453125 16.734375 C-1.6925415 16.74247192 -2.49055176 16.75056885 -3.31274414 16.75891113 C-6.90180357 16.69837791 -9.03463156 16.51514724 -11.9609375 14.35351562 C-14.02224432 11.39072344 -14.03513828 9.74403059 -13.45703125 6.203125 C-9.53687006 0.32288322 -6.7040917 0.03969841 0 0 Z " fill="#F0F3F3" transform="translate(276.45703125,393.796875)"/>
<path d="M0 0 C0.82830322 -0.00619858 1.65660645 -0.01239716 2.51000977 -0.01878357 C4.25828884 -0.02587592 6.00663554 -0.02271786 7.75488281 -0.01000977 C10.42899824 0.00386215 13.09961732 -0.03022521 15.7734375 -0.06835938 C17.47395919 -0.06931056 19.17448525 -0.06745177 20.875 -0.0625 C21.67301025 -0.07575821 22.47102051 -0.08901642 23.29321289 -0.10267639 C27.19754472 -0.03722024 29.04345864 0.20693458 31.97265625 2.87915039 C33.4375 5.56640625 33.4375 5.56640625 33.4375 9.19140625 C32.4375 12.56640625 32.4375 12.56640625 30.89648438 14.25024414 C27.37491062 16.13515321 23.99261902 16.01474698 20.09375 16 C18.88458923 16.00786278 18.88458923 16.00786278 17.65100098 16.0158844 C15.94980011 16.02229653 14.24855486 16.02097804 12.54736328 16.01245117 C9.94613726 16.00393453 7.34710326 16.0327215 4.74609375 16.06445312 C3.09114649 16.06606514 1.43619535 16.0654876 -0.21875 16.0625 C-0.99488647 16.07373398 -1.77102295 16.08496796 -2.57067871 16.09654236 C-6.09219395 16.05113663 -8.16909298 15.85270628 -11.05273438 13.75415039 C-13.26828673 10.54367746 -13.10612064 8.37175074 -12.5625 4.56640625 C-9.29163348 -0.20698789 -5.34837661 -0.03324174 0 0 Z " fill="#F3F4F4" transform="translate(275.5625,477.43359375)"/>
<path d="M0 0 C11 0 11 0 14.0625 1.75 C17.88817664 6.19272126 18.31633969 9.4972371 18.375 15.375 C18.40335938 16.66148437 18.43171875 17.94796875 18.4609375 19.2734375 C17.93135112 23.55500878 16.698564 25.67946214 14 29 C9.81537205 31.09231398 4.67855628 30 0 30 C0 20.1 0 10.2 0 0 Z " fill="#F3F3F3" transform="translate(762,463)"/>
<path d="M0 0 C18.48 0 36.96 0 56 0 C56 5.61 56 11.22 56 17 C49.73 17 43.46 17 37 17 C37 44.72 37 72.44 37 101 C36.67 101 36.34 101 36 101 C35.82321055 89.95207569 35.65724304 78.90404752 35.50522423 67.85575294 C35.43429854 62.72600232 35.35959671 57.59636379 35.27636719 52.46679688 C35.19623561 47.51970322 35.12588968 42.57255967 35.06242752 37.62522507 C35.03643443 35.73446877 35.00687048 33.84375819 34.97373581 31.95311356 C34.92804974 29.31203468 34.89487909 26.6710807 34.86474609 24.02978516 C34.8482048 23.24216293 34.83166351 22.45454071 34.81462097 21.64305115 C34.79977173 19.76107798 34.89025102 17.87882907 35 16 C37 14 37 14 40.6953125 13.8046875 C42.17200108 13.817991 43.64862358 13.84185165 45.125 13.875 C45.87910156 13.88402344 46.63320313 13.89304687 47.41015625 13.90234375 C49.27357254 13.9259313 51.13682593 13.96180281 53 14 C53 10.37 53 6.74 53 3 C35.84 3 18.68 3 1 3 C1 6.96 1 10.92 1 15 C6.94 15 12.88 15 19 15 C20.5831692 18.16633841 20.0788004 21.55759009 20.02172852 25.02978516 C20.01212097 25.85913071 20.00251343 26.68847626 19.99261475 27.54295349 C19.95956144 30.29174115 19.91925328 33.040373 19.87890625 35.7890625 C19.85461132 37.69191941 19.83076745 39.59478214 19.80735779 41.49765015 C19.74445447 46.51186731 19.67540555 51.52598195 19.60510254 56.5401001 C19.53447546 61.65428997 19.46962485 66.76855268 19.40429688 71.8828125 C19.27520403 81.92195504 19.13962257 91.96099878 19 102 C18.67 102 18.34 102 18 102 C18 73.95 18 45.9 18 17 C12.06 17 6.12 17 0 17 C0 11.39 0 5.78 0 0 Z " fill="#343738" transform="translate(567,446)"/>
<path d="M0 0 C23.43 0 46.86 0 71 0 C70.34 1.65 69.68 3.3 69 5 C65.7 5.33 62.4 5.66 59 6 C59 6.33 59 6.66 59 7 C41.51 7 24.02 7 6 7 C6.33 6.01 6.66 5.02 7 4 C5.35 4 3.7 4 2 4 C2 3.01 2 2.02 2 1 C1.34 0.67 0.68 0.34 0 0 Z " fill="#E9EEF1" transform="translate(243,524)"/>
<path d="M0 0 C5.94 0 11.88 0 18 0 C18 10.56 18 21.12 18 32 C17.67 32 17.34 32 17 32 C17 22.1 17 12.2 17 2 C12.38 2 7.76 2 3 2 C3 34.34 3 66.68 3 100 C13.56 100 24.12 100 35 100 C35 100.33 35 100.66 35 101 C23.45 101 11.9 101 0 101 C0 67.67 0 34.34 0 0 Z " fill="#1A1C1D" transform="translate(631,447)"/>
<path d="M0 0 C6.93 0 13.86 0 21 0 C21 27.72 21 55.44 21 84 C28.59 84 36.18 84 44 84 C45.32 84.66 46.64 85.32 48 86 C48 91.61 48 97.22 48 103 C47.67 103 47.34 103 47 103 C47 97.72 47 92.44 47 87 C37.43 87 27.86 87 18 87 C18 58.95 18 30.9 18 2 C12.06 2 6.12 2 0 2 C0 1.34 0 0.68 0 0 Z " fill="#E5E5E6" transform="translate(631,445)"/>
<path d="M0 0 C2.84631492 1.73094954 3.36423734 2.89769151 5 6 C5.68359886 10.32945942 5.5279283 12.19050994 3.125 15.875 C0.26214372 18.73785628 -1.36716762 19.1865146 -5.3125 19.3125 C-8.83541599 19.28413514 -9.89358919 19.06650675 -13 17.125 C-16.04740074 13.88713671 -16.43015034 11.51654111 -16.32421875 7.04296875 C-16 5 -16 5 -14.1875 2 C-9.52785411 -0.92369938 -5.35250929 -1.12346522 0 0 Z " fill="#0E1214" transform="translate(823,529)"/>
<path d="M0 0 C15.51 0 31.02 0 47 0 C47 4.95 47 9.9 47 15 C46.67 15 46.34 15 46 15 C46 10.71 46 6.42 46 2 C31.48 2 16.96 2 2 2 C2 8.93 2 15.86 2 23 C1.93871888 29.3714441 1.86858828 35.74221907 1.78125 42.11328125 C1.75871014 43.83204494 1.73629253 45.55081025 1.71398926 47.26957703 C1.65601238 51.71299881 1.59641712 56.15639733 1.53643799 60.59979248 C1.4751015 65.16612436 1.41536017 69.73247711 1.35546875 74.29882812 C1.23850543 83.1992394 1.11982559 92.09962683 1 101 C0.67 101 0.34 101 0 101 C0 67.67 0 34.34 0 0 Z " fill="#303233" transform="translate(686,446)"/>
<path d="M0 0 C3.14581423 -0.02888514 6.29159469 -0.04675923 9.4375 -0.0625 C10.33533203 -0.07087891 11.23316406 -0.07925781 12.15820312 -0.08789062 C13.01220703 -0.09111328 13.86621094 -0.09433594 14.74609375 -0.09765625 C15.93223267 -0.10551147 15.93223267 -0.10551147 17.14233398 -0.11352539 C19 0 19 0 20 1 C20.08871273 4.02977804 20.1151935 7.03667022 20.09765625 10.06640625 C20.0962413 10.97502914 20.09482635 11.88365204 20.09336853 12.81980896 C20.08775193 15.73407221 20.07519665 18.64825981 20.0625 21.5625 C20.05748714 23.53320202 20.05292386 25.50390524 20.04882812 27.47460938 C20.03777711 32.31643559 20.02050138 37.15820495 20 42 C25.61 42 31.22 42 37 42 C37 28.8 37 15.6 37 2 C37.66 2.33 38.32 2.66 39 3 C39 16.53 39 30.06 39 44 C32.07 44 25.14 44 18 44 C18 29.81 18 15.62 18 1 C12.06 1 6.12 1 0 1 C0 0.67 0 0.34 0 0 Z " fill="#FBFBFB" transform="translate(369,445)"/>
<path d="M0 0 C15.51 0 31.02 0 47 0 C47 5.61 47 11.22 47 17 C37.76 17 28.52 17 19 17 C19 25.58 19 34.16 19 43 C18.67 43 18.34 43 18 43 C17.80418654 38.52115561 17.6197364 34.04191574 17.4375 29.5625 C17.38142578 28.28310547 17.32535156 27.00371094 17.26757812 25.68554688 C17.21923828 24.47060547 17.17089844 23.25566406 17.12109375 22.00390625 C17.0739624 20.87799072 17.02683105 19.7520752 16.97827148 18.59204102 C17 16 17 16 18 15 C19.99964982 14.91241997 22.0023611 14.89303424 24.00390625 14.90234375 C25.21884766 14.90556641 26.43378906 14.90878906 27.68554688 14.91210938 C28.96494141 14.92048828 30.24433594 14.92886719 31.5625 14.9375 C32.84576172 14.94201172 34.12902344 14.94652344 35.45117188 14.95117188 C38.6341342 14.96300445 41.81707274 14.98094056 45 15 C45 10.71 45 6.42 45 2 C30.15 2 15.3 2 0 2 C0 1.34 0 0.68 0 0 Z " fill="#252627" transform="translate(900,446)"/>
<path d="M0 0 C5.94 0 11.88 0 18 0 C17.67 1.32 17.34 2.64 17 4 C16.88761629 5.77086988 16.8242475 7.54514997 16.79467773 9.31933594 C16.77473251 10.38013367 16.75478729 11.4409314 16.73423767 12.53387451 C16.70916893 14.24187225 16.70916893 14.24187225 16.68359375 15.984375 C16.66281265 17.15510559 16.64203156 18.32583618 16.62062073 19.53204346 C16.55524372 23.27130269 16.49629509 27.01063205 16.4375 30.75 C16.39430353 33.2851635 16.35068888 35.82031991 16.30664062 38.35546875 C16.19957441 44.5702384 16.0977859 50.78507778 16 57 C15.67 57 15.34 57 15 57 C15 39.18 15 21.36 15 3 C11.04 3 7.08 3 3 3 C3 16.2 3 29.4 3 43 C2.67 43 2.34 43 2 43 C1.67 32.44 1.34 21.88 1 11 C0.67 11 0.34 11 0 11 C0 7.37 0 3.74 0 0 Z " fill="#1A1E20" transform="translate(408,446)"/>
<path d="M0 0 C6.93 0 13.86 0 21 0 C21 0.99 21 1.98 21 3 C14.73 2.67 8.46 2.34 2 2 C2.01160156 4.93648438 2.02320313 7.87296875 2.03515625 10.8984375 C2.04294946 13.73469942 2.04902472 16.57096016 2.05493164 19.40722656 C2.0599681 21.38216687 2.06679751 23.35710343 2.07543945 25.33203125 C2.08753508 28.16667605 2.0932351 31.00127166 2.09765625 33.8359375 C2.10281754 34.72243988 2.10797882 35.60894226 2.11329651 36.52230835 C2.11387171 42.77225659 2.11387171 42.77225659 1 45 C-5.27 45 -11.54 45 -18 45 C-18 44.67 -18 44.34 -18 44 C-12.06 44 -6.12 44 0 44 C0 29.48 0 14.96 0 0 Z " fill="#FCFCFC" transform="translate(387,505)"/>
<path d="M0 0 C4.46580397 -0.02300643 8.9314007 -0.04290477 13.3972168 -0.05493164 C14.91512755 -0.05994766 16.4330335 -0.06676203 17.95092773 -0.07543945 C20.13787016 -0.08762497 22.32474846 -0.09325572 24.51171875 -0.09765625 C25.82615967 -0.10289307 27.14060059 -0.10812988 28.49487305 -0.11352539 C31.48205125 -0.01677552 34.10592611 0.29656236 37 1 C37.495 2.485 37.495 2.485 38 4 C19.685 3.505 19.685 3.505 1 3 C1 11.58 1 20.16 1 29 C0.67 29 0.34 29 0 29 C0 19.43 0 9.86 0 0 Z " fill="#202223" transform="translate(744,446)"/>
<path d="M0 0 C1.98 0 3.96 0 6 0 C4.02 0.99 4.02 0.99 2 2 C2 10.91 2 19.82 2 29 C7.445 28.01 7.445 28.01 13 27 C15.32126765 23.56568216 15.32126765 23.56568216 16 20 C16.33 20 16.66 20 17 20 C16.75 23.3125 16.75 23.3125 16 27 C12 30 12 30 0 30 C0 20.1 0 10.2 0 0 Z " fill="#FCFDFD" transform="translate(762,463)"/>
<path d="M0 0 C0.99 0 1.98 0 3 0 C3.33 2.97 3.66 5.94 4 9 C7.96 9 11.92 9 16 9 C16 6.03 16 3.06 16 0 C16.99 0 17.98 0 19 0 C19 3.63 19 7.26 19 11 C13.06 11 7.12 11 1 11 C0.67 7.37 0.34 3.74 0 0 Z " fill="#16191A" transform="translate(871,465)"/>
<path d="M0 0 C0.66 0 1.32 0 2 0 C3.01259619 3.36992013 3.16555609 6.48897481 3.1875 10 C3.20167969 11.03125 3.21585938 12.0625 3.23046875 13.125 C3.00276947 15.96545203 2.46504061 17.59107948 1 20 C-0.1482685 17.703463 -0.11561175 16.41686833 -0.09765625 13.8671875 C-0.09443359 13.06152344 -0.09121094 12.25585938 -0.08789062 11.42578125 C-0.07951172 10.58402344 -0.07113281 9.74226563 -0.0625 8.875 C-0.05798828 8.02550781 -0.05347656 7.17601562 -0.04882812 6.30078125 C-0.03702874 4.20049091 -0.01909306 2.1002367 0 0 Z " fill="#1C1F20" transform="translate(796,466)"/>
<path d="M0 0 C4.95 0 9.9 0 15 0 C15 1.98 15 3.96 15 6 C14.67 6 14.34 6 14 6 C14 4.35 14 2.7 14 1 C10.04 1 6.08 1 2 1 C2 3.97 2 6.94 2 10 C1.01 10 0.02 10 -1 10 C-1.125 3.375 -1.125 3.375 0 0 Z " fill="#1A1E20" transform="translate(506,519)"/>
<path d="M0 0 C0.33 0 0.66 0 1 0 C1.33 10.23 1.66 20.46 2 31 C0.68 31.33 -0.64 31.66 -2 32 C-2 30.68 -2 29.36 -2 28 C-1.34 28 -0.68 28 0 28 C0 18.76 0 9.52 0 0 Z " fill="#E8EFF0" transform="translate(131,563)"/>
<path d="M0 0 C0.66 5.28 1.32 10.56 2 16 C-0.95327501 14.5233625 -1.6228876 13.00460887 -3 10 C-3.24772413 6.98181013 -3.17769468 4.02080963 -3 1 C-1 0 -1 0 0 0 Z " fill="#E5E6E7" transform="translate(836,469)"/>
<path d="M0 0 C4.62 0 9.24 0 14 0 C14 0.99 14 1.98 14 3 C9.71 3 5.42 3 1 3 C0.67 2.01 0.34 1.02 0 0 Z " fill="#1A1D1E" transform="translate(527,547)"/>
<path d="M0 0 C2.475 0.495 2.475 0.495 5 1 C5.33 2.32 5.66 3.64 6 5 C5.01 5.33 4.02 5.66 3 6 C2.34 5.67 1.68 5.34 1 5 C1 6.65 1 8.3 1 10 C0.67 10 0.34 10 0 10 C0 6.7 0 3.4 0 0 Z " fill="#EDEDEF" transform="translate(764,512)"/>
<path d="M0 0 C1.98 0 3.96 0 6 0 C6 0.99 6 1.98 6 3 C0.06 3 -5.88 3 -12 3 C-12 2.67 -12 2.34 -12 2 C-6.06 1.505 -6.06 1.505 0 1 C0 0.67 0 0.34 0 0 Z " fill="#D9EAF1" transform="translate(208,408)"/>
<path d="M0 0 C2.475 0.495 2.475 0.495 5 1 C5 3.64 5 6.28 5 9 C4.01 9 3.02 9 2 9 C2 6.36 2 3.72 2 1 C1.34 0.67 0.68 0.34 0 0 Z " fill="#E7E7E8" transform="translate(850,516)"/>
<path d="M0 0 C0.33 0 0.66 0 1 0 C1 4.95 1 9.9 1 15 C0.01 14.67 -0.98 14.34 -2 14 C-1.85866501 12.22880197 -1.71176792 10.45804713 -1.5625 8.6875 C-1.48128906 7.70136719 -1.40007813 6.71523438 -1.31640625 5.69921875 C-1 3 -1 3 0 0 Z " fill="#E6E7E7" transform="translate(779,471)"/>
<path d="M0 0 C2.87776653 1.43888327 4.7324298 3.7324298 7 6 C8.31175986 7.02813611 9.6369893 8.04084432 11 9 C10.67 9.66 10.34 10.32 10 11 C6.37 8.36 2.74 5.72 -1 3 C-0.67 2.01 -0.34 1.02 0 0 Z " fill="#ECECED" transform="translate(860,480)"/>
<path d="M0 0 C2.1640625 -0.29296875 2.1640625 -0.29296875 4.625 -0.1875 C5.44226563 -0.16042969 6.25953125 -0.13335938 7.1015625 -0.10546875 C8.04128906 -0.05326172 8.04128906 -0.05326172 9 0 C9.33 0.99 9.66 1.98 10 3 C6.04 3 2.08 3 -2 3 C-1.34 2.01 -0.68 1.02 0 0 Z " fill="#B9D9E9" transform="translate(235,577)"/>
<path d="M0 0 C0.66 1.32 1.32 2.64 2 4 C0.3125 6.0625 0.3125 6.0625 -2 8 C-4.75 7.75 -4.75 7.75 -7 7 C-5 5.66666667 -3 4.33333333 -1 3 C-0.67 2.01 -0.34 1.02 0 0 Z " fill="#181B1B" transform="translate(872,527)"/>
<path d="M0 0 C-0.969375 0.45375 -1.93875 0.9075 -2.9375 1.375 C-6.07079582 2.65786221 -6.07079582 2.65786221 -7 5 C-8.32 4.67 -9.64 4.34 -11 4 C-4.45754717 -1.33726415 -4.45754717 -1.33726415 0 0 Z " fill="#0565C1" transform="translate(148,367)"/>
<path d="M0 0 C0.99 0 1.98 0 3 0 C3 2.31 3 4.62 3 7 C2.01 7 1.02 7 0 7 C0 4.69 0 2.38 0 0 Z " fill="#16191B" transform="translate(825,535)"/>
<path d="M0 0 C2.50357861 0.8345262 4.66785852 1.79371992 7 3 C5.88625 2.979375 4.7725 2.95875 3.625 2.9375 C0.16784079 2.73619282 0.16784079 2.73619282 -2 4 C-2 3.01 -2 2.02 -2 1 C-1.34 0.67 -0.68 0.34 0 0 Z " fill="#ECEDED" transform="translate(463,461)"/>
</svg>
